<?xml version="1.0" encoding="UTF-8"?>
<svg id="Capa_1" xmlns="http://www.w3.org/2000/svg" width="90" height="80" version="1.1" viewBox="0 0 90 80">
  <!-- Generator: Adobe Illustrator 29.0.1, SVG Export Plug-In . SVG Version: 2.1.0 Build 192)  -->
  <defs>
    <style>
      .st0 {
        fill: #dc2527;
      }
    </style>
  </defs>
  <path class="st0" d="M87.6044922,10.7955079l-14.7617188-2.6425781-4.4921875-5.7675781c-.2138672-.2744141-.5546875-.4140625-.9003906-.3798828-.3457031.0390625-.6464844.2548828-.7939453.5693359l-10.0058594,21.3320312c-1.0751953,2.2910156-3.4042969,3.7714844-5.9346313,3.7714844H17.0107422c-6.2451172,0-11.6162109-4.3808594-13.0615234-10.6542969-.1044922-.4541016-.5097656-.7753906-.9746094-.7753906h-.0126953c-.4707031.0058594-.8730469.3388672-.9667969.7998047-.28125,1.3769531-.4238281,2.7617188-.4238281,4.1142578,0,8.3105469,4.921875,15.1494141,11.1621094,15.8164062v40.0205078c0,.5527344.4472656,1,1,1h8.7832031c.5205078,0,.9541016-.3994141.9970703-.9179688l1.5068359-18.2832031,8.0986328-10.6855469,23.3027344,7.5166016c.2177734.0703125.3681641.2626953.3837891.4902344l1.4580078,20.9492188c.0371094.5244141.4726562.9306641.9980469.9306641h8.3798828c.5527344,0,1-.4472656,1-1v-22.8251953l8.6396484-30.4365234h4.6455078c3.5849609,0,6.5019531-2.9169922,6.5019531-6.5019531v-5.4560547c0-.484375-.3466797-.8994141-.8242188-.984375ZM66.6796875,53.7613282c-.0253906.0888672-.0380859.1806641-.0380859.2734375v21.9648438h-6.4472656l-1.3925781-20.0185547c-.0732422-1.046875-.765625-1.9316406-1.765625-2.2548828l-23.9785156-7.7353516c-.4013672-.1289062-.8466797.0087891-1.1035156.3476562l-8.703125,11.4833984c-.1152344.1523438-.1845703.3330078-.2001953.5224609l-1.4550781,17.6552734h-6.8623047v-39.9677734c0-.5527344-.4472656-1-1-1-5.4892578,0-9.9755859-5.9697266-10.15625-13.4023438,2.6767578,4.8916016,7.7373047,8.0488281,13.4335938,8.0488281h33.7050171c2.9859009,0,5.7442627-1.5881958,7.284668-4.1005859l15.0229492,5.8353882-6.343689,22.3482056ZM86.4287109,17.2359376c0,2.4824219-2.0195312,4.5019531-4.5019531,4.5019531h-5.4013672c-.4472656,0-.8398438.296875-.9619141.7265625l-1.991272,7.0151367-14.6563721-5.6929321,8.8585815-18.8856812,3.7255859,4.7832031c.1513672.1953125.3701172.3261719.6132812.3701172l14.3154297,2.5625v4.6191406Z"/>
</svg>