<?xml version="1.0" encoding="UTF-8"?>
<svg id="Capa_1" xmlns="http://www.w3.org/2000/svg" width="242" height="80" version="1.1" viewBox="0 0 242 80">
  <!-- Generator: Adobe Illustrator 29.0.1, SVG Export Plug-In . SVG Version: 2.1.0 Build 192)  -->
  <defs>
    <style>
      .st0 {
        fill: #fff;
      }
    </style>
  </defs>
  <g>
    <path class="st0" d="M.362015,79.9804355h18.0475541S92.591008.0049998,92.5760094.0000002.362015,79.9804355.362015,79.9804355Z"/>
    <polygon class="st0" points="76.6935529 23.8354444 76.6935529 80 64.6363039 72.3324807 31.7044395 72.3324807 43.5315553 59.585183 64.0038178 59.585183 64.0038178 37.5218775 76.6935529 23.8354444"/>
  </g>
  <rect class="st0" x="88.3259176" y="11.0697955" width=".9299142" height="68.9302045"/>
  <g>
    <path class="st0" d="M111.9964817,29.7697169c-.2583295-.8124276-.4071498-.9247448-1.5172179-.9247448h-5.5868436c-.9247448,0-1.1465712.1123172-1.4058367.8891777l-1.2953914,3.8843024c-.5550341,1.6641662-.8133636,2.6637891-.8133636,3.0718748,0,.4436529.1843874.6645433,1.072629.7394214l1.2214493.1104452c.2583295.1853233.2583295.7768605-.0739421.9247448-.9621838-.0730062-2.109691-.0730062-3.8487353-.1104452-1.2205133,0-2.5524079.0748781-3.5520307.1104452-.2218264-.1478843-.2957686-.7394214-.0739421-.9247448l1.2214493-.1104452c.8882417-.0748781,1.7016052-.4810919,2.2201362-1.8139224.6654793-1.7016052,1.7016052-4.1070648,3.2553262-8.2496967l3.7747931-9.9906129c.517595-1.3328305.7394214-2.0348129.6289762-2.62635.8873057-.2602015,1.5162819-.9266167,1.9234317-1.4077086.2227624,0,.4810919.0748781.5550341.3332076.4810919,1.6285991,1.073565,3.3302043,1.6285991,4.9588034l5.0683126,14.8745382c1.073565,3.18232,1.5546569,3.7364181,3.1458169,3.9217414l.9986869.1104452c.2592655.1853233.1853233.7768605,0,.9247448-1.5172179-.0730062-2.8116733-.1104452-4.4767755-.1104452-1.7764834,0-3.18232.0748781-4.2549491.1104452-.2967045-.1478843-.3332076-.7394214-.0739421-.9247448l1.072629-.1104452c.7768605-.0748781,1.2953914-.2957686,1.2953914-.6664153,0-.4062138-.1853233-1.072629-.4810919-1.9618067l-1.6285991-5.0318096ZM104.6705938,26.4769516c-.2957686.8517386-.2592655.8891777.7768605.8891777h4.5516536c1.072629,0,1.1465712-.1478843.8133636-1.1475072l-1.9973738-6.0314324c-.2967045-.8873057-.6299122-1.8869286-.8517386-2.3305814h-.0739421c-.1104452.1853233-.4810919,1.072629-.8873057,2.1826971l-2.3315174,6.4376462Z"/>
    <path class="st0" d="M127.9249294,19.4852073c0-3.8861743-.0739421-4.4777115-2.4054596-4.6630348l-.9247448-.0730062c-.2218264-.1497562-.1478843-.8142995.0739421-.9266167,2.0722519.0748781,3.3302043.1123172,4.8099831.1123172,1.4432757,0,2.7012281-.0374391,4.5516536-.1123172.2218264.1123172.2957686.7768605.0739421.9266167l-.8882417.0730062c-2.1826971.1853233-2.2566393.7768605-2.2566393,4.6630348v12.8752924c0,2.3305814.1104452,3.2927653.7768605,3.9966196.4071498.4062138,1.1100681.8498666,4.0331226.8498666,3.144881,0,3.9217414-.1478843,4.5132786-.4810919.7403574-.4436529,1.7025412-1.7746114,2.4419626-3.66154.2227624-.1853233.9256807-.0374391.9256807.2208904,0,.4080857-1.036126,4.1819429-1.5546569,5.1796938-1.8869286-.0730062-5.4015203-.1104452-9.2128165-.1104452h-3.4041465c-1.553721,0-2.7377312.0374391-4.8099831.1104452-.2218264-.1104452-.2957686-.7019824-.0739421-.9247448l1.1100681-.1104452c2.1461941-.2227624,2.2201362-.7394214,2.2201362-4.6255958v-13.3189453Z"/>
    <path class="st0" d="M153.5341818,32.8041526c0,3.8861743.0739421,4.3672663,2.4419626,4.6255958l.9986869.1104452c.2218264.1853233.1478843.8142995-.0739421.9247448-2.108755-.0730062-3.3302043-.1104452-4.8099831-.1104452-1.553721,0-2.8865515.0374391-4.5142146.1104452-.2218264-.1104452-.2957686-.7019824-.0739421-.9247448l.7768605-.1104452c2.1461941-.2957686,2.2201362-.7394214,2.2201362-4.6255958v-13.6521529c0-3.144881-.0739421-3.7738572-1.7390443-3.9591805l-1.3318945-.1478843c-.2592655-.2227624-.2218264-.7768605.0739421-.9247448,1.9608707-.2602015,4.2549491-.2976405,7.3258879-.2976405s5.3650172.4080857,7.1040615,1.4807148c1.7025412,1.072629,2.9604936,2.9969967,2.9604936,5.5503405,0,3.4032105-2.109691,5.1066877-3.699915,5.8835481-1.6285991.7768605-3.5894698,1.1100681-5.1066877,1.1100681-.2583295-.1123172-.2583295-.6664153-.0365031-.7412934,3.9956836-.7394214,5.4389593-2.9969967,5.4389593-6.2148838,0-3.5904058-2.109691-5.9209872-5.9574903-5.9209872-1.9608707,0-1.9973738.1478843-1.9973738,1.3328305v16.5012653Z"/>
    <path class="st0" d="M171.3907411,19.4852073c0-3.8487353-.0739421-4.4047053-2.2566393-4.6630348l-.5924731-.0730062c-.2218264-.1497562-.1478843-.8142995.0739421-.9266167,1.59116.0748781,2.8491124.1123172,4.3663303.1123172h6.9561772c2.3680205,0,4.5507176,0,4.9943705-.1123172.2227624.6289762.4445888,3.2946372.5924731,4.9213643-.1478843.2227624-.7403574.2957686-.9247448.0748781-.5550341-1.7390443-.8882417-3.0344357-2.8126093-3.5155277-.7768605-.1853233-1.9608707-.2227624-3.5885338-.2227624h-2.664725c-1.1091321,0-1.1091321.0748781-1.1091321,1.4807148v7.39983c0,1.0370619.1104452,1.0370619,1.2205133,1.0370619h2.1461941c1.553721,0,2.7012281-.0748781,3.144881-.2227624s.7029183-.3706467.8882417-1.2953914l.2957686-1.5162819c.1853233-.2227624.8142995-.2227624.9621838.0374391,0,.8873057-.1478843,2.3305814-.1478843,3.7364181,0,1.3309586.1478843,2.7386672.1478843,3.5510948-.1478843.2602015-.7768605.2602015-.9621838.0374391l-.3332076-1.4432757c-.1478843-.6645433-.4071498-1.2205133-1.1465712-1.4058367-.518531-.1478843-1.4058367-.1853233-2.8491124-.1853233h-2.1461941c-1.1100681,0-1.2205133.0374391-1.2205133.9996229v5.2171329c0,1.9618067.1104452,3.2197591.7029183,3.8487353.4436529.4436529,1.2205133.8498666,4.4767755.8498666,2.8491124,0,3.9217414-.1478843,4.736041-.5540981.6654793-.3706467,1.6651022-1.6660381,2.627286-3.5885338.2583295-.1853233.7768605-.0748781.9247448.2583295-.2592655,1.2953914-1.1840102,4.1445038-1.6651022,5.1422548-3.3302043-.0730062-6.6229696-.1104452-9.9157348-.1104452h-3.3302043c-1.59116,0-2.8491124.0374391-5.0318096.1104452-.2227624-.1104452-.2967045-.7019824-.0739421-.9247448l1.2205133-.1104452c2.108755-.1853233,2.2940783-.7394214,2.2940783-4.6255958v-13.3189453Z"/>
    <path class="st0" d="M194.9651807,19.5207744c0-3.5136557-.1113812-4.1426319-1.6276631-4.3279552l-1.1840102-.1478843c-.2592655-.1853233-.2592655-.7768605.0365031-.9247448,2.0722519-.1853233,4.6255958-.2976405,8.2515686-.2976405,2.2940783,0,4.4767755.1853233,6.1783807,1.1100681,1.7764834.9247448,3.0709388,2.5907829,3.0709388,5.1815658,0,3.5136557-2.7742343,5.4380233-4.6246598,6.1774448-.1853233.2227624,0,.5934091.1853233.8891777,2.9595576,4.77348,4.9204283,7.7330377,7.4363331,9.8408567.6299122.55597,1.5546569.9621838,2.5533438,1.0370619.1853233.0730062.2218264.3706467.0374391.518531-.3332076.1104452-.9256807.1834514-1.6285991.1834514-3.144881,0-5.0318096-.9247448-7.6590955-4.6611629-.9621838-1.3683976-2.4784657-3.9217414-3.6259729-5.5877796-.5550341-.8124276-1.1465712-1.1830743-2.62635-1.1830743-1.6651022,0-1.7390443.0374391-1.7390443.8142995v4.6611629c0,3.8861743.0739421,4.3298272,2.2192002,4.6255958l.7777965.1104452c.2218264.1853233.1478843.8142995-.0739421.9247448-1.6651022-.0730062-2.9230545-.1104452-4.4037693-.1104452-1.553721,0-2.8856155.0374391-4.6246598.1104452-.2218264-.1104452-.2957686-.6645433-.0739421-.9247448l.9247448-.1104452c2.1461941-.2583295,2.2201362-.7394214,2.2201362-4.6255958v-13.2833782ZM197.9996164,24.8127855c0,.6664153,0,1.072629.1104452,1.2205133.1113812.1104452.6664153.1853233,2.5533438.1853233,1.3318945,0,2.7377312-.1478843,3.8112962-.9621838.9986869-.7768605,1.8494895-2.0722519,1.8494895-4.5881567,0-2.9221186-1.8129864-5.6982248-5.9200512-5.6982248-2.2940783,0-2.4045236.1478843-2.4045236,1.1849462v8.6577824Z"/>
    <path class="st0" d="M228.7389559,32.8041526c0,3.8861743.0748781,4.4402724,2.2201362,4.6255958l1.1840102.1104452c.2227624.1478843.1488203.8142995-.0739421.9247448-2.108755-.0730062-3.3667074-.1104452-4.8464862-.1104452-1.4807148,0-2.7751703.0374391-5.1431908.1104452-.2218264-.1104452-.2957686-.7394214,0-.9247448l1.3318945-.1104452c2.108755-.1853233,2.2940783-.7394214,2.2940783-4.6255958v-16.5387044c0-1.1475072,0-1.1849462-1.1100681-1.1849462h-2.0348129c-1.59116,0-3.6259729.0748781-4.5516536.9266167-.8873057.8124276-1.2579524,1.6267271-1.6641662,2.5514719-.2967045.2227624-.8142995.0374391-.9621838-.2583295.5915371-1.6641662,1.1465712-4.0321867,1.4058367-5.5129015.1104452-.0748781.5915371-.1104452.7029183,0,.2218264,1.1830743,1.4432757,1.1475072,3.144881,1.1475072h14.9849834c1.9983098,0,2.3315174-.0748781,2.8865515-1.0370619.1843874-.0730062.5915371-.0374391.6654793.1123172-.4071498,1.5162819-.6654793,4.5132786-.5550341,5.6233467-.1478843.2957686-.7768605.2957686-.9612478.0730062-.1113812-.9247448-.3706467-2.2931424-.9256807-2.6993562-.8508026-.6289762-2.2566393-.9266167-4.2914522-.9266167h-2.627286c-1.1100681,0-1.073565.0374391-1.073565,1.2579524v16.4656982Z"/>
  </g>
  <g>
    <path class="st0" d="M102.1790244,64.6563682c-2.3755083,0-3.8749426-.7356775-4.4121931-1.0464217-.3397595-.6233603-.7075982-2.6300939-.7637568-3.9610525.1413324-.1965551.5653298-.2545856.6785829-.0842379.4249333,1.4432757,1.5836722,4.2137661,4.8652057,4.2137661,2.3755083,0,3.5351832-1.5555929,3.5351832-3.2515823,0-1.2448487-.2545856-2.6300939-2.3193497-3.9610525l-2.6871885-1.752148c-1.4133245-.9341045-3.0540913-2.545856-3.0540913-4.8652057,0-2.6881244,2.0928434-4.8652057,5.769359-4.8652057.87701,0,1.8953524.1703477,2.6310299.3669028.3678388.1141891.7637568.1703477.9893271.1703477.2545856.6795189.5091712,2.2631911.5091712,3.4500093-.1123172.1703477-.5653298.2545856-.7066622.0861098-.3678388-1.3571659-1.1315956-3.1972957-3.8468633-3.1972957-2.7714264,0-3.3657714,1.8401298-3.3657714,3.1411371,0,1.6398308,1.3581019,2.8285209,2.4045236,3.4780886l2.2622551,1.4151964c1.7820992,1.1025803,3.5361191,2.7424111,3.5361191,5.4305355,0,3.1111858-2.348365,5.2321085-6.0248806,5.2321085Z"/>
    <path class="st0" d="M114.2849442,47.4868157c2.0647641-1.6117515,4.695794-2.4035876,7.6366321-2.4035876,1.5275136,0,3.6774516.3107442,5.0065382.6795189.3397595.0842379.5372505.1403965.7918361.1123172.0280793.6514396.1694117,2.4335388.3959181,4.1576075-.1413324.198427-.5653298.2265063-.7637568.0561586-.4239973-1.9224957-1.6969254-4.1295282-5.7983743-4.1295282-4.3270193,0-8.0035349,2.744283-8.0035349,8.5997519,0,5.9397067,3.7616895,9.2193683,8.3994529,9.2193683,3.6493723,0,5.2611238-2.3755083,5.9116274-4.0434184.198427-.1422684.6224244-.0861098.7356775.1123172-.198427,1.471355-.9331685,3.3376921-1.3581019,3.8749426-.3388235.0561586-.6785829.1703477-.9893271.2826649-.6224244.2265063-2.6591092.6514396-4.4692877.6514396-2.545856,0-4.9775229-.5091712-7.042287-1.8962883-2.2631911-1.5555929-4.0162751-4.1295282-4.0162751-7.7779645,0-3.1392651,1.4142605-5.8255176,3.5632625-7.4952996Z"/>
    <path class="st0" d="M136.5097056,55.0682251c-1.3581019,0-1.4142605.0561586-1.4142605.9041533v3.9891318c0,2.9689174.1413324,3.3657714,1.7250047,3.5342472l.8208514.0861098c.1694117.1123172.1132532.6214884-.0570946.7057263-1.5275136-.0561586-2.4887615-.0842379-3.5922777-.0842379-1.2158334,0-2.1770813.0561586-3.2805976.0842379-.1694117-.0842379-.2265063-.5372505-.0561586-.7057263l.4801559-.0861098c1.5846082-.2826649,1.6407668-.5653298,1.6407668-3.5342472v-10.1834241c0-2.9689174-.198427-3.4500093-1.6688461-3.5641984l-.7356775-.0561586c-.1694117-.1123172-.1123172-.6214884.0570946-.7075982,1.3861812.0299512,2.347429.0861098,3.5632625.0861098,1.1035163,0,2.0647641-.0280793,3.2815335-.0861098.1694117.0861098.2265063.595281.0561586.7075982l-.5372505.0561586c-1.6407668.1703477-1.6969254.595281-1.6969254,3.5641984v3.2534542c0,.876074.0561586.9041533,1.4142605.9041533h8.0887087c1.3581019,0,1.4142605-.0280793,1.4142605-.9041533v-3.2534542c0-2.9689174-.0561586-3.3938507-1.7250047-3.5641984l-.5372505-.0561586c-.1694117-.1123172-.1132532-.6214884.0561586-.7075982,1.3010073.0580305,2.2631911.0861098,3.422866.0861098,1.1025803,0,2.0647641-.0280793,3.3376921-.0861098.1694117.0861098.2255703.595281.0561586.7075982l-.5943451.0561586c-1.6398308.1703477-1.6969254.595281-1.6969254,3.5641984v10.1834241c0,2.9689174.0570946,3.3358202,1.6969254,3.5342472l.6795189.0861098c.1694117.1123172.1132532.6214884-.0570946.7057263-1.3571659-.0561586-2.3193497-.0842379-3.42193-.0842379-1.1596749,0-2.1780173.0280793-3.422866.0842379-.1694117-.0842379-.2255703-.5372505-.0561586-.7057263l.5372505-.0861098c1.7250047-.2826649,1.7250047-.5653298,1.7250047-3.5342472v-3.9891318c0-.8479947-.0561586-.9041533-1.4142605-.9041533h-8.0887087Z"/>
    <path class="st0" d="M155.7262387,49.8061654c0-2.6862525-.0851739-3.1673444-1.2448487-3.3077409l-.9050893-.1141891c-.197491-.1403965-.197491-.5934091.0290153-.7075982,1.5836722-.1403965,3.5351832-.2265063,6.3066095-.2265063,1.7540199,0,3.422866.1422684,4.7238733.8498666,1.3571659.7075982,2.347429,1.9786543,2.347429,3.9591805,0,2.6862525-2.1209227,4.1576075-3.5351832,4.7229373-.1413324.1703477,0,.4530126.1413324.6795189,2.2622551,3.6484363,3.7616895,5.9116274,5.6851211,7.5233789.4810919.4249333,1.1877542.7356775,1.951511.7918361.1413324.0561586.1694117.2826649.0280793.396854-.2545856.0842379-.7066622.1403965-1.2448487.1403965-2.4035876,0-3.8459274-.7075982-5.8545329-3.5641984-.7356775-1.0464217-1.8944164-2.9969967-2.7714264-4.2699247-.4249333-.6233603-.87701-.9060252-2.0086055-.9060252-1.272928,0-1.3290866.0299512-1.3290866.6233603v3.5641984c0,2.9689174.0561586,3.3077409,1.6969254,3.5342472l.5943451.0861098c.1694117.1403965.1132532.6214884-.0570946.7057263-1.272928-.0561586-2.2341759-.0842379-3.3657714-.0842379-1.1877542,0-2.2060966.0280793-3.5351832.0842379-.1694117-.0842379-.2265063-.5091712-.0570946-.7057263l.7075982-.0861098c1.6407668-.198427,1.6969254-.5653298,1.6969254-3.5342472v-10.1553448ZM158.0455884,53.8514557c0,.5091712,0,.8199154.0851739.9341045.0842379.0842379.5091712.1403965,1.951511.1403965,1.0183424,0,2.0928434-.1123172,2.9127588-.7356775.7637568-.5934091,1.4142605-1.5836722,1.4142605-3.5061679,0-2.2351118-1.3861812-4.3560345-4.5254463-4.3560345-1.7530839,0-1.8382578.1123172-1.8382578.9041533v6.6192257Z"/>
    <path class="st0" d="M175.3312021,49.7780861c0-2.9408381-.0561586-3.3657714-1.7250047-3.5641984l-.4530126-.0561586c-.1694117-.1123172-.1132532-.6214884.0570946-.7075982,1.2158334.0580305,2.1770813.0861098,3.3367561.0861098h5.3182184c1.8101785,0,3.4780886,0,3.8178481-.0861098.1694117.4810919.3397595,2.5177767.4530126,3.7626254-.1132532.1703477-.5662658.2265063-.7075982.0561586-.4239973-1.3290866-.6785829-2.3193497-2.149938-2.6862525-.5934091-.1422684-1.4984983-.1703477-2.7433471-.1703477h-2.0357488c-.8489307,0-.8489307.0561586-.8489307,1.1325315v5.6551699c0,.7937081.0851739.7937081.9331685.7937081h1.6407668c1.1877542,0,2.0647641-.0580305,2.4035876-.1703477.3397595-.1141891.5381865-.2826649.6795189-.9902631l.2255703-1.1587389c.1422684-.1703477.6224244-.1703477.7356775.0280793,0,.677647-.1132532,1.7820992-.1132532,2.8566002,0,1.0183424.1132532,2.0928434.1132532,2.7143318-.1132532.198427-.5934091.198427-.7356775.0280793l-.2545856-1.1025803c-.1123172-.5091712-.3107442-.9341045-.876074-1.074501-.3959181-.1141891-1.075437-.1422684-2.1780173-.1422684h-1.6407668c-.8479947,0-.9331685.0280793-.9331685.7637568v3.9891318c0,1.4994343.0851739,2.4597462.5372505,2.9408381.3397595.3388235.9331685.6514396,3.422866.6514396,2.1770813,0,2.9979327-.1141891,3.620357-.4249333.5091712-.2826649,1.271992-1.272928,2.0076695-2.744283.198427-.1403965.5943451-.0561586.7075982.198427-.198427.9902631-.9050893,3.1673444-1.272928,3.9311012-2.545856-.0561586-5.0626968-.0842379-7.5804735-.0842379h-2.545856c-1.2158334,0-2.1770813.0280793-3.8459274.0842379-.1703477-.0842379-.2265063-.5372505-.0570946-.7057263l.9331685-.0861098c1.6126875-.1403965,1.7540199-.5653298,1.7540199-3.5342472v-10.1834241Z"/>
    <path class="st0" d="M197.9004029,59.9034796c0,3.0269479.1703477,3.4799605,1.6978613,3.5922777l1.074501.0861098c.1694117.1684758.1132532.6214884-.0561586.7057263-1.7540199-.0561586-2.7162037-.0842379-3.8468633-.0842379-1.1877542,0-2.2060966.0280793-3.7055309.0842379-.1694117-.0842379-.2265063-.5372505-.0561586-.7057263l.876074-.0861098c1.6407668-.1684758,1.6978613-.5653298,1.6978613-3.5922777v-1.4414038c0-1.5555929-.0851739-1.9243676-.9050893-3.5080398l-3.3376921-6.5050365c-.9621838-1.8663371-1.3861812-2.0086055-2.2351118-2.149002l-.7918361-.1422684c-.1694117-.198427-.1413324-.5934091.0570946-.7075982.9050893.0580305,1.9234317.0861098,3.2805976.0861098,1.3010073,0,2.3193497-.0280793,3.0269479-.0861098.2545856.0861098.2545856.5391225.0842379.7075982l-.3678388.0561586c-.9893271.1422684-1.1877542.2845368-1.1877542.5091712,0,.2845368.7356775,1.8962883.87701,2.1789532,1.0464217,2.0928434,2.0928434,4.3279552,3.1963597,6.2785302.876074-1.4994343,1.8101785-3.1392651,2.6581732-4.7790959.7918361-1.471355,1.8382578-3.3938507,1.8382578-3.7345462,0-.1684758-.5082352-.3669028-1.1877542-.4530126l-.5091712-.0561586c-.197491-.198427-.1694117-.5934091.0570946-.7075982,1.0183424.0580305,1.8382578.0861098,2.7152678.0861098s1.6688461-.0280793,2.6300939-.0861098c.2265063.1422684.2545856.5391225.0570946.7075982l-.7927721.1422684c-1.470419.2545856-2.3184137,2.0366848-3.7326742,4.4683517l-1.7820992,3.0831065c-1.2448487,2.149002-1.3300226,2.4035876-1.3300226,4.5825408v1.4694831Z"/>
    <path class="st0" d="M209.3726666,49.7780861c0-2.9408381-.0561586-3.3657714-1.7250047-3.5641984l-.4530126-.0561586c-.1694117-.1123172-.1132532-.6214884.0570946-.7075982,1.2158334.0580305,2.1770813.0861098,3.3367561.0861098h5.3182184c1.8101785,0,3.4780886,0,3.8178481-.0861098.1694117.4810919.3397595,2.5177767.4530126,3.7626254-.1132532.1703477-.5662658.2265063-.7075982.0561586-.4239973-1.3290866-.6785829-2.3193497-2.149938-2.6862525-.5934091-.1422684-1.4984983-.1703477-2.7433471-.1703477h-2.0357488c-.8489307,0-.8489307.0561586-.8489307,1.1325315v5.6551699c0,.7937081.0851739.7937081.9331685.7937081h1.6407668c1.1877542,0,2.0647641-.0580305,2.4035876-.1703477.3397595-.1141891.5381865-.2826649.6795189-.9902631l.2255703-1.1587389c.1422684-.1703477.6224244-.1703477.7356775.0280793,0,.677647-.1132532,1.7820992-.1132532,2.8566002,0,1.0183424.1132532,2.0928434.1132532,2.7143318-.1132532.198427-.5934091.198427-.7356775.0280793l-.2545856-1.1025803c-.1123172-.5091712-.3107442-.9341045-.876074-1.074501-.3959181-.1141891-1.075437-.1422684-2.1780173-.1422684h-1.6407668c-.8479947,0-.9331685.0280793-.9331685.7637568v3.9891318c0,1.4994343.0851739,2.4597462.5372505,2.9408381.3397595.3388235.9331685.6514396,3.422866.6514396,2.1770813,0,2.9979327-.1141891,3.620357-.4249333.5091712-.2826649,1.271992-1.272928,2.0076695-2.744283.198427-.1403965.5943451-.0561586.7075982.198427-.198427.9902631-.9050893,3.1673444-1.272928,3.9311012-2.545856-.0561586-5.0626968-.0842379-7.5804735-.0842379h-2.545856c-1.2158334,0-2.1770813.0280793-3.8459274.0842379-.1703477-.0842379-.2265063-.5372505-.0570946-.7057263l.9331685-.0861098c1.6126875-.1403965,1.7540199-.5653298,1.7540199-3.5342472v-10.1834241Z"/>
    <path class="st0" d="M226.0171363,49.8061654c0-2.6862525-.0851739-3.1673444-1.2448487-3.3077409l-.9050893-.1141891c-.197491-.1403965-.197491-.5934091.0290153-.7075982,1.5836722-.1403965,3.5351832-.2265063,6.3066095-.2265063,1.7540199,0,3.422866.1422684,4.7238733.8498666,1.3571659.7075982,2.347429,1.9786543,2.347429,3.9591805,0,2.6862525-2.1209227,4.1576075-3.5351832,4.7229373-.1413324.1703477,0,.4530126.1413324.6795189,2.2622551,3.6484363,3.7616895,5.9116274,5.6851211,7.5233789.4801559.4249333,1.1877542.7356775,1.951511.7918361.1413324.0561586.1694117.2826649.0280793.396854-.2545856.0842379-.7066622.1403965-1.2448487.1403965-2.4035876,0-3.8459274-.7075982-5.8545329-3.5641984-.7347415-1.0464217-1.8944164-2.9969967-2.7714264-4.2699247-.4249333-.6233603-.87701-.9060252-2.0086055-.9060252-1.272928,0-1.3290866.0299512-1.3290866.6233603v3.5641984c0,2.9689174.0561586,3.3077409,1.6969254,3.5342472l.5943451.0861098c.1694117.1403965.1132532.6214884-.0570946.7057263-1.272928-.0561586-2.2341759-.0842379-3.3657714-.0842379-1.1877542,0-2.2060966.0280793-3.5351832.0842379-.1694117-.0842379-.2265063-.5091712-.0570946-.7057263l.7075982-.0861098c1.6407668-.198427,1.6969254-.5653298,1.6969254-3.5342472v-10.1553448ZM228.336486,53.8514557c0,.5091712,0,.8199154.0851739.9341045.0842379.0842379.5091712.1403965,1.951511.1403965,1.0183424,0,2.0928434-.1123172,2.9127588-.7356775.7637568-.5934091,1.4142605-1.5836722,1.4142605-3.5061679,0-2.2351118-1.3861812-4.3560345-4.5254463-4.3560345-1.7530839,0-1.8382578.1123172-1.8382578.9041533v6.6192257Z"/>
  </g>
  <g>
    <path class="st0" d="M102.8547994,73.4620349c0,1.2822878-.9612478,2.0797397-2.4981212,2.0797397h-1.1596749v1.5855442h-1.3309586v-5.7525114h2.4906334c1.5368734,0,2.4981212.79558,2.4981212,2.0872275ZM101.5069933,73.4620349c0-.6327201-.4108937-1.0033668-1.2242572-1.0033668h-1.0857327v1.9973738h1.0857327c.8133636,0,1.2242572-.3706467,1.2242572-.994007Z"/>
    <path class="st0" d="M108.9423904,76.0584337v1.0688851h-4.4543121v-5.7525114h4.3476107v1.0670132h-3.02414v1.2504646h2.6712769v1.03519h-2.6712769v1.3309586h3.1308413Z"/>
    <path class="st0" d="M114.4141089,77.1273188l-1.1091321-1.6023917h-1.2251932v1.6023917h-1.3309586v-5.7525114h2.4906334c1.5368734,0,2.4981212.79558,2.4981212,2.0872275,0,.8629703-.4352291,1.4956904-1.1830743,1.8157944l1.2897756,1.8494895h-1.4301721ZM113.1655163,72.4586681h-1.0857327v2.0048616h1.0857327c.8133636,0,1.2242572-.3781345,1.2242572-1.0014948,0-.6327201-.4108937-1.0033668-1.2242572-1.0033668Z"/>
    <path class="st0" d="M117.0844498,76.560117l.4520766-1.0033668c.4848358.3537991,1.2083456.6008969,1.8981603.6008969.7890282,0,1.1100681-.2639454,1.1100681-.6158725,0-1.0782449-3.3451799-.3369515-3.3451799-2.4747218,0-.9771594.7890282-1.791459,2.4241791-1.791459.7235098,0,1.4629312.1722197,1.9973738.5091712l-.4108937,1.0108546c-.5344426-.3032564-1.0847967-.4511407-1.5949039-.4511407-.7880922,0-1.0922846.2957686-1.0922846.6570555,0,1.0595254,3.3451799.3294637,3.3451799,2.4410267,0,.9621838-.797452,1.7839712-2.4410267,1.7839712-.9125771,0-1.8335779-.2714332-2.3427491-.6664153Z"/>
    <path class="st0" d="M123.1093304,74.2501271c0-1.7090931,1.3318945-2.9745333,3.1486249-2.9745333,1.8083066,0,3.1476889,1.2579524,3.1476889,2.9745333,0,1.7184528-1.3393823,2.9764052-3.1476889,2.9764052-1.8167303,0-3.1486249-1.2654402-3.1486249-2.9764052ZM128.057838,74.2501271c0-1.0932205-.7731166-1.8401298-1.7998828-1.8401298-1.0277022,0-1.7998828.7469092-1.7998828,1.8401298s.7721806,1.8420017,1.7998828,1.8420017c1.0267662,0,1.7998828-.7487812,1.7998828-1.8420017Z"/>
    <path class="st0" d="M136.3908366,71.3748074v5.7525114h-1.0922846l-2.8687679-3.4930642v3.4930642h-1.315047v-5.7525114h1.1016443l2.8594081,3.4930642v-3.4930642h1.315047Z"/>
    <path class="st0" d="M142.2631531,75.8937018h-2.6712769l-.5091712,1.233617h-1.3646537l2.5645756-5.7525114h1.315047l2.5720634,5.7525114h-1.3974129l-.5091712-1.233617ZM141.8438356,74.8828472l-.9125771-2.2014167-.9116411,2.2014167h1.8242182Z"/>
    <path class="st0" d="M145.487592,71.3748074h1.3309586v4.6667787h2.8856155v1.0857327h-4.216574v-5.7525114Z"/>
    <path class="st0" d="M153.7588162,71.3748074h1.3309586v5.7525114h-1.3309586v-5.7525114Z"/>
    <path class="st0" d="M162.4231504,71.3748074v5.7525114h-1.0932205l-2.8678319-3.4930642v3.4930642h-1.315047v-5.7525114h1.1016443l2.8594081,3.4930642v-3.4930642h1.315047Z"/>
    <path class="st0" d="M163.7185419,76.3878974l.7394214-.8873057c.3126161.4193175.6570555.6327201,1.0679492.6327201.5344426,0,.8142995-.320104.8142995-.954696v-2.7367952h-2.0217092v-1.0670132h3.344244v3.7308022c0,1.4208123-.7141501,2.1209227-2.07038,2.1209227-.7731166,0-1.4554434-.2957686-1.8738249-.8386349Z"/>
    <path class="st0" d="M169.644209,74.5964384v-3.221631h1.3318945v3.1710883c0,1.0932205.476412,1.5462331,1.2822878,1.5462331.8133636,0,1.2813518-.4530126,1.2813518-1.5462331v-3.1710883h1.315047v3.221631c0,1.6922455-.9696716,2.6300939-2.6048225,2.6300939-1.6360869,0-2.6057585-.9378484-2.6057585-2.6300939Z"/>
    <path class="st0" d="M180.5502069,77.1273188l-1.1091321-1.6023917h-1.2251932v1.6023917h-1.3309586v-5.7525114h2.4906334c1.5368734,0,2.4981212.79558,2.4981212,2.0872275,0,.8629703-.4352291,1.4956904-1.1830743,1.8157944l1.2897756,1.8494895h-1.4301721ZM179.3016143,72.4586681h-1.0857327v2.0048616h1.0857327c.8133636,0,1.2242572-.3781345,1.2242572-1.0014948,0-.6327201-.4108937-1.0033668-1.2242572-1.0033668Z"/>
    <path class="st0" d="M186.1997609,75.088762v2.0385568h-1.3309586v-2.0554043l-2.227624-3.6971071h1.4133245l1.5378094,2.5552158,1.5368734-2.5552158h1.3066232l-2.2360478,3.7139547Z"/>
    <path class="st0" d="M192.3004556,71.3748074h1.3309586v4.6667787h2.8856155v1.0857327h-4.216574v-5.7525114Z"/>
    <path class="st0" d="M202.0458427,75.8937018h-2.6712769l-.5091712,1.233617h-1.3646537l2.5645756-5.7525114h1.315047l2.5720634,5.7525114h-1.3974129l-.5091712-1.233617ZM201.6265253,74.8828472l-.9125771-2.2014167-.9116411,2.2014167h1.8242182Z"/>
    <path class="st0" d="M213.5630333,71.3748074l-1.8813127,5.7525114h-1.4301721l-1.2663762-3.8955341-1.3066232,3.8955341h-1.4217483l-1.8906725-5.7525114h1.3805653l1.2991354,4.0434184,1.3562299-4.0434184h1.232681l1.315047,4.0752416,1.3393823-4.0752416h1.273864Z"/>
    <path class="st0" d="M218.1586778,75.088762v2.0385568h-1.3309586v-2.0554043l-2.227624-3.6971071h1.4133245l1.5378094,2.5552158,1.5368734-2.5552158h1.3066232l-2.2360478,3.7139547Z"/>
    <path class="st0" d="M226.1416212,76.0584337v1.0688851h-4.4543121v-5.7525114h4.3476107v1.0670132h-3.02414v1.2504646h2.6712769v1.03519h-2.6712769v1.3309586h3.1308413Z"/>
    <path class="st0" d="M231.6133397,77.1273188l-1.1091321-1.6023917h-1.2251932v1.6023917h-1.3309586v-5.7525114h2.4906334c1.5368734,0,2.4981212.79558,2.4981212,2.0872275,0,.8629703-.4352291,1.4956904-1.1830743,1.8157944l1.2897756,1.8494895h-1.4301721ZM230.3647471,72.4586681h-1.0857327v2.0048616h1.0857327c.8133636,0,1.2242572-.3781345,1.2242572-1.0014948,0-.6327201-.4108937-1.0033668-1.2242572-1.0033668Z"/>
    <path class="st0" d="M234.2836806,76.560117l.4520766-1.0033668c.4848358.3537991,1.2083456.6008969,1.8981603.6008969.7890282,0,1.1100681-.2639454,1.1100681-.6158725,0-1.0782449-3.3451799-.3369515-3.3451799-2.4747218,0-.9771594.7890282-1.791459,2.4241791-1.791459.7235098,0,1.4629312.1722197,1.9973738.5091712l-.4108937,1.0108546c-.5344426-.3032564-1.0847967-.4511407-1.5949039-.4511407-.7880922,0-1.0922846.2957686-1.0922846.6570555,0,1.0595254,3.3451799.3294637,3.3451799,2.4410267,0,.9621838-.797452,1.7839712-2.4410267,1.7839712-.9125771,0-1.8335779-.2714332-2.3427491-.6664153Z"/>
  </g>
</svg>