<?xml version="1.0" encoding="UTF-8"?>
<svg id="Capa_1" xmlns="http://www.w3.org/2000/svg" width="82" height="80" version="1.1" viewBox="0 0 82 80">
  <!-- Generator: Adobe Illustrator 29.0.1, SVG Export Plug-In . SVG Version: 2.1.0 Build 192)  -->
  <defs>
    <style>
      .st0 {
        fill: #dc2527;
      }
    </style>
  </defs>
  <g>
    <path class="st0" d="M24.3114187,18.6176435c-3.3818359,0-6.6323242-1.9003906-8.1860352-5.1494141-2.1552734-4.5058594-.2426758-9.9248047,4.2626953-12.0800781,4.5058594-2.1523438,9.9248047-.2421875,12.0800781,4.2626953h.0004883c2.1542969,4.5058594.2416992,9.9257812-4.2631836,12.0810547-1.2568359.6005859-2.5854492.8857422-3.894043.8857422ZM24.2855398,2.5024092c-1.0195312,0-2.0546875.2216797-3.034668.6904297-1.7001953.8134766-2.9824219,2.2402344-3.6098633,4.0175781-.6274414,1.7783203-.5249023,3.6943359.2885742,5.3945312,1.6791992,3.5107422,5.8994141,5.0019531,9.4130859,3.3222656,3.5097656-1.6796875,4.9995117-5.9023438,3.3212891-9.4130859h0c-1.2104492-2.53125-3.7431641-4.0117188-6.378418-4.0117188Z"/>
    <path class="st0" d="M63.8358328,69.5463545c-1.0424805,0-2.1010742-.2929688-3.0332031-.8994141l-20.2607422-13.1777344c-3.090332-2.0087891-5.5654297-4.8300781-7.1572266-8.1572266l-6.7021484-14.0136719-4.2714844,5.3476562-2.2939453,11.46875c-.590332,1.96875-2.4775391,3.1455078-4.4101562,2.8476562-1.934082-.3037109-3.3662109-2.0087891-3.3310547-3.9658203l.2255859-12.5771484c.0209961-1.1572266.4482422-2.2763672,1.2041016-3.1513672l8.8242188-10.2255859c.0898438-.1044922.2006836-.1894531.3251953-.2490234l14.7436523-7.0517578c.2436523-.1152344.5253906-.1298828.7788086-.0351562l10.2670898,3.8017578c1.0952148-1.6425781,4.0585938-6.0498047,5.4116211-8.0722656,1.2119141-1.8115234,3.234375-2.4863281,4.9179688-1.6396484,1.6826172.8476562,2.3457031,2.8730469,1.6123047,4.9267578-.659668,1.8476562-3.0405273,8.5410156-4.6347656,13.0234375-.4760742,1.3378906-1.5043945,2.4091797-2.8217773,2.9384766-1.3183594.5302734-2.8032227.4677734-4.0737305-.1699219l-4.4775391-2.2460938,3.2451172,6.7949219,13.9462891-2.7626953c.2241211-.0488281.4584961-.0117188.6621094.0966797l15.8032227,8.359375c1.3085938.6923828,2.2705078,1.9130859,2.6386719,3.3476562.3676758,1.4335938.1098633,2.9697266-.7084961,4.2138672-1.4707031,2.2373047-4.5541992,2.9648438-7.0175781,1.6630859l-12.6499023-6.6923828-10.2890625,2.0380859-.3886719-1.9609375,10.637207-2.1074219c.2236328-.0488281.4584961-.0117188.6621094.0966797l12.9638672,6.8583984c1.5620117.8251953,3.5.390625,4.4111328-.9951172.5166016-.7851562.6738281-1.7148438.4418945-2.6171875-.2280273-.890625-.824707-1.6474609-1.6367188-2.0771484l-15.4892578-8.1933594-14.3603516,2.8447266c-.4487305.0927734-.8999023-.1376953-1.0966797-.5498047l-4.8374023-10.1298828c-.184082-.3857422-.1030273-.8457031.2021484-1.1445312.3056641-.2978516.7670898-.3701172,1.1489258-.1796875l7.0859375,3.5556641c.7573242.3798828,1.6430664.4169922,2.4311523.1015625.7856445-.3164062,1.3989258-.9550781,1.6826172-1.7529297,1.5952148-4.484375,3.9760742-11.1777344,4.6357422-13.0253906.3242188-.9082031.2558594-2.0234375-.6279297-2.4677734-.8823242-.4482422-1.8203125.1630859-2.3564453.9648438-1.3540039,2.0234375-4.3183594,6.4326172-5.4296875,8.0849609-.512207.7617188-1.4750977,1.0683594-2.3378906.7509766l-9.8706055-3.6552734-14.1733398,6.7783203-8.6875,10.0673828c-.4506836.5224609-.7055664,1.1894531-.7177734,1.8798828l-.2255859,12.5771484c-.0175781.9648438.6879883,1.8046875,1.6411133,1.9541016.9555664.1591797,1.8833008-.4326172,2.1625977-1.3564453l2.2724609-11.3798828c.0629883-.3125.2001953-.6064453.3974609-.8525391l5.265625-6.5927734c.2143555-.2685547.5493164-.4130859.8950195-.3691406.3417969.0390625.6396484.2509766.7885742.5615234l7.390625,15.4521484c1.4326172,2.9960938,3.6606445,5.5351562,6.4428711,7.34375l20.2612305,13.1787109c1.4814453.9638672,3.4506836.7021484,4.4824219-.5947266.5854492-.7363281.8251953-1.6474609.6757812-2.5664062-.1469727-.9072266-.6733398-1.7148438-1.4433594-2.2158203l-19.3959961-12.6152344,1.0908203-1.6757812,19.3959961,12.6152344c1.2412109.8066406,2.0893555,2.1083984,2.3266602,3.5712891.2373047,1.4599609-.1577148,2.9658203-1.0844727,4.1308594-1.0014648,1.2597656-2.534668,1.9257812-4.1054688,1.9257812Z"/>
  </g>
  <g>
    <rect class="st0" x="21.2741199" y="50.6018718" width="1.9998906" height="26.7893561" transform="translate(-43.6017327 79.8733131) rotate(-84.3599638)"/>
    <rect class="st0" x="13.2902332" y="63.7903483" width="1.9998906" height="26.7893561" transform="translate(-63.9256073 83.8204121) rotate(-84.3599638)"/>
    <rect class="st0" x="33.7199207" y="50.9413787" width="1.9998906" height="43.6718656" transform="translate(-41.1173349 100.176675) rotate(-84.35997)"/>
  </g>
</svg>