<svg width="90" height="80" viewBox="0 0 90 80" fill="none" xmlns="http://www.w3.org/2000/svg">
<path d="M15.02 38.4307C7.01 38.4307 0.5 44.9407 0.5 52.9507C0.5 60.9607 7.01 67.4707 15.02 67.4707C23.03 67.4707 29.54 60.9607 29.54 52.9507C29.54 44.9407 23.03 38.4307 15.02 38.4307ZM15.02 65.4707C8.12 65.4707 2.5 59.8507 2.5 52.9507C2.5 46.0507 8.12 40.4307 15.02 40.4307C21.92 40.4307 27.54 46.0507 27.54 52.9507C27.54 59.8507 21.92 65.4707 15.02 65.4707Z" fill="#DC2527"/>
<path d="M74.9799 38.4303C73.0999 38.4303 71.3099 38.8003 69.6599 39.4503L68.0699 36.1703C70.1999 35.2903 72.5299 34.7903 74.9799 34.7903C78.6699 34.7903 82.2299 35.8903 85.2599 37.9803L86.3899 36.3303C83.0199 34.0103 79.0799 32.7903 74.9799 32.7903C72.2199 32.7903 69.5899 33.3503 67.1899 34.3603L64.2699 28.3203C65.1399 28.6603 66.0799 28.8603 67.0699 28.8603C67.6399 28.8603 68.2399 28.7903 68.8299 28.6503C69.2799 28.5403 69.5999 28.1403 69.5999 27.6803V14.8003C69.5999 14.3403 69.2799 13.9303 68.8299 13.8303C64.6899 12.8503 60.8899 15.3803 59.7799 19.0503L56.8999 13.0903C56.7299 12.7403 56.3799 12.5303 55.9999 12.5303H45.8599V14.5303H55.3699L57.7399 19.4303H44.9999C40.8499 19.4303 37.3599 22.2803 36.3599 26.1203H10.8099C7.72992 26.1203 5.22992 28.6303 5.22992 31.7003V33.8003C5.22992 34.3503 5.67992 34.8003 6.22992 34.8003H6.29992C4.33992 35.7403 2.51992 36.9903 0.919922 38.5603L2.31992 39.9903C5.72992 36.6503 10.2399 34.8003 15.0199 34.8003C25.0299 34.8003 33.1699 42.9403 33.1699 52.9503C33.1699 54.4103 32.9999 55.8503 32.6599 57.2503C32.5899 57.5503 32.6599 57.8603 32.8499 58.1003C33.0399 58.3403 33.3299 58.4803 33.6399 58.4803H56.3799C56.6899 58.4803 56.9799 58.3403 57.1699 58.1003C57.3599 57.8603 57.4299 57.5403 57.3599 57.2503C57.0199 55.8503 56.8499 54.4003 56.8499 52.9503C56.8499 46.1003 60.6699 40.1303 66.2799 37.0403L67.8699 40.3203C63.4599 42.8203 60.4799 47.5403 60.4799 52.9503C60.4799 60.9603 66.9899 67.4703 74.9999 67.4703C83.0099 67.4703 89.5199 60.9603 89.5199 52.9503C89.5199 44.9403 83.0099 38.4303 74.9999 38.4303H74.9799ZM61.4399 21.2403C61.4399 18.1403 63.9599 15.6103 67.0699 15.6103C67.2399 15.6103 67.4199 15.6103 67.5999 15.6403V26.8403C67.4199 26.8603 67.2399 26.8703 67.0699 26.8703C64.9799 26.8703 63.1599 25.7303 62.1899 24.0403L61.8399 23.3203C61.5799 22.6803 61.4399 21.9803 61.4399 21.2503V21.2403ZM44.9999 21.4303H58.7099L60.0099 24.1203C60.1299 24.4103 60.2699 24.6903 60.4199 24.9603L64.2099 32.8003H39.6599C38.6299 31.5603 38.0599 30.0003 38.0599 28.3703C38.0599 24.5403 41.1699 21.4303 44.9999 21.4303ZM7.22992 32.8003V31.7003C7.22992 29.7203 8.83992 28.1203 10.8099 28.1203H36.0699C36.0699 28.2103 36.0599 28.2903 36.0599 28.3803C36.0599 29.9503 36.4799 31.4703 37.2399 32.8103H7.22992V32.8003ZM56.0699 46.0703H42.7699C40.9299 46.0703 39.4399 44.5703 39.4399 42.7403C39.4399 40.9103 40.9399 39.4103 42.7699 39.4103H60.1199C58.3699 41.3303 56.9799 43.5903 56.0799 46.0803L56.0699 46.0703ZM62.1799 37.4003H42.7599C39.8199 37.4003 37.4299 39.7903 37.4299 42.7303C37.4299 45.6703 39.8199 48.0603 42.7599 48.0603H55.4499C55.2399 48.9103 55.0699 49.7703 54.9699 50.6603H44.9299V52.6603H54.8399C54.8399 52.7503 54.8299 52.8503 54.8299 52.9403C54.8299 54.1303 54.9299 55.3203 55.1399 56.4803H34.8599C35.0699 55.3203 35.1699 54.1303 35.1699 52.9403C35.1699 44.9503 30.4799 38.0403 23.7099 34.7903H65.1799L65.3899 35.2203C64.2499 35.8403 63.1699 36.5703 62.1799 37.3903V37.4003ZM74.9799 65.4703C68.0799 65.4703 62.4599 59.8503 62.4599 52.9503C62.4599 48.3303 64.9899 44.2903 68.7199 42.1203L71.3199 47.4903C69.5599 48.6703 68.4099 50.6703 68.4099 52.9503C68.4099 56.5703 71.3599 59.5203 74.9799 59.5203C78.5999 59.5203 81.5499 56.5703 81.5499 52.9503C81.5499 49.3303 78.5999 46.3803 74.9799 46.3803C74.3399 46.3803 73.7199 46.4803 73.1399 46.6503L70.5299 41.2603C71.9199 40.7303 73.4099 40.4303 74.9799 40.4303C81.8799 40.4303 87.4999 46.0503 87.4999 52.9503C87.4999 59.8503 81.8799 65.4703 74.9799 65.4703ZM74.0299 48.4903C74.3399 48.4203 74.6599 48.3903 74.9799 48.3903C77.4999 48.3903 79.5499 50.4403 79.5499 52.9603C79.5499 55.4803 77.4999 57.5303 74.9799 57.5303C72.4599 57.5303 70.4099 55.4803 70.4099 52.9603C70.4099 51.4803 71.1299 50.1803 72.2099 49.3503L74.1199 53.3003L75.9199 52.4303L74.0199 48.5003L74.0299 48.4903Z" fill="#DC2527"/>
<path d="M15.0202 46.3799C11.4002 46.3799 8.4502 49.3299 8.4502 52.9499C8.4502 56.5699 11.4002 59.5199 15.0202 59.5199C18.6402 59.5199 21.5902 56.5699 21.5902 52.9499C21.5902 49.3299 18.6402 46.3799 15.0202 46.3799ZM15.0202 57.5199C12.5002 57.5199 10.4502 55.4699 10.4502 52.9499C10.4502 50.4299 12.5002 48.3799 15.0202 48.3799C17.5402 48.3799 19.5902 50.4299 19.5902 52.9499C19.5902 55.4699 17.5402 57.5199 15.0202 57.5199Z" fill="#DC2527"/>
</svg>
