<?xml version="1.0" encoding="UTF-8"?>
<svg id="Capa_1" xmlns="http://www.w3.org/2000/svg" width="60" height="60" version="1.1" viewBox="0 0 60 60">
  <!-- Generator: Adobe Illustrator 29.3.1, SVG Export Plug-In . SVG Version: 2.1.0 Build 151)  -->
  <defs>
    <style>
      .st0 {
        fill: none;
      }

      .st1 {
        fill: #da2320;
      }
    </style>
  </defs>
  <g>
    <path class="st1" d="M58.9056782,21.1435547c-.2412109-.144043-.5410156-.1513672-.7880859-.0200195-2.3876953,1.2729492-7.7724609,2.0952148-13.71875,2.0952148-3.3056641,0-6.9404297-.9267578-11.1484375-2-5.15625-1.3144531-11.0009766-2.8046875-17.5214844-2.8046875-6.328125,0-12.0654297.9243164-14.6142578,2.3549805-.2519531.1416016-.4082031.4086914-.4082031.6977539v29.4707031c0,.2841797.1503906.546875.3955078.6904297.2460938.1445312.5478516.1464844.7958984.0068359,2.2919922-1.2861328,7.8496094-2.1503906,13.8310547-2.1503906,6.3193359,0,12.0605469,1.4677734,17.1259766,2.7617188,4.1337891,1.0566406,8.0371094,2.0537109,11.5439453,2.0537109,6.2939453,0,11.8398438-.8789062,14.4736328-2.2939453.2587891-.1396484.4208984-.4101562.4208984-.7050781v-29.4711914c0-.2807617-.1474609-.5415039-.3876953-.6860352ZM57.6937641,50.8037109c-2.5537109,1.1591797-7.6699219,1.8964844-13.2949219,1.8964844-3.3056641,0-6.9394531-.9287109-11.1474609-2.0039062-5.1572266-1.3183594-11.0019531-2.8115234-17.5224609-2.8115234-5.4794922,0-10.515625.6933594-13.4228516,1.8076172v-27.7368164c2.4980469-1.1704102,7.7714844-1.9418945,13.4228516-1.9418945,6.3193359,0,12.0605469,1.4638672,17.1259766,2.7558594,4.1337891,1.0537109,8.0380859,2.0488281,11.5439453,2.0488281,5.4648438,0,10.3710938-.6616211,13.2949219-1.7602539v27.7456055Z"/>
    <path class="st1" d="M15.7289204,13.6567383c6.3193359,0,12.0605469,1.4638672,17.1259766,2.7558594,4.1337891,1.0537109,8.0380859,2.0488281,11.5439453,2.0488281,6.2841797,0,11.8291016-.8745117,14.4707031-2.2822266l-.7519531-1.4121094c-2.3876953,1.2724609-7.7734375,2.0947266-13.71875,2.0947266-3.3056641,0-6.9404297-.9267578-11.1484375-2-5.15625-1.3144531-11.0009766-2.8046875-17.5214844-2.8046875-6.328125,0-12.0654297.9243164-14.6142578,2.3549805l.7832031,1.3955078c2.2919922-1.2866211,7.8496094-2.1508789,13.8310547-2.1508789Z"/>
    <path class="st1" d="M15.7289204,7.2998047c6.3193359,0,12.0605469,1.4643555,17.1259766,2.7558594,4.1337891,1.0541992,8.0371094,2.0493164,11.5439453,2.0493164,6.2841797,0,11.8291016-.8745117,14.4707031-2.2827148l-.7519531-1.4121094c-2.3876953,1.2729492-7.7724609,2.0952148-13.71875,2.0952148-3.3056641,0-6.9394531-.9267578-11.1484375-2-5.15625-1.3149414-11.0009766-2.8051758-17.5214844-2.8051758-6.3271484,0-12.0644531.9243164-14.6142578,2.3549805l.7832031,1.3955078c2.2929688-1.2866211,7.8505859-2.1508789,13.8310547-2.1508789Z"/>
    <path class="st1" d="M12.2162251,30.9931641c-1.3085938,0-2.3730469,1.0644531-2.3730469,2.3740234,0,1.3085938,1.0644531,2.3730469,2.3730469,2.3730469,1.3095703,0,2.3740234-1.0644531,2.3740234-2.3730469,0-1.3095703-1.0644531-2.3740234-2.3740234-2.3740234ZM12.2162251,34.140625c-.4267578,0-.7734375-.3466797-.7734375-.7734375s.3466797-.7744141.7734375-.7744141.7744141.3476562.7744141.7744141-.3476562.7734375-.7744141.7734375Z"/>
    <path class="st1" d="M47.8607563,40.6533203c1.3085938,0,2.3730469-1.0644531,2.3730469-2.3740234,0-1.3085938-1.0644531-2.3730469-2.3730469-2.3730469s-2.3730469,1.0644531-2.3730469,2.3730469c0,1.3095703,1.0644531,2.3740234,2.3730469,2.3740234ZM47.8607563,37.5058594c.4267578,0,.7734375.3466797.7734375.7734375s-.3466797.7744141-.7734375.7744141-.7734375-.3476562-.7734375-.7744141.3466797-.7734375.7734375-.7734375Z"/>
    <path class="st1" d="M30.1771626,25.0107422c-5.3134766,0-9.6367188,5.027832-9.6367188,11.2080078,0,6.1806641,4.3232422,11.2089844,9.6367188,11.2089844s9.6357422-5.0283203,9.6357422-11.2089844c0-6.1801758-4.3222656-11.2080078-9.6357422-11.2080078ZM30.1771626,45.828125c-4.4316406,0-8.0371094-4.3105469-8.0371094-9.609375,0-5.2978516,3.6054688-9.6083984,8.0371094-9.6083984,4.4306641,0,8.0361328,4.3105469,8.0361328,9.6083984,0,5.2988281-3.6054688,9.609375-8.0361328,9.609375Z"/>
    <path class="st1" d="M32.1048969,32.21875h1.5996094c0-1.5137329-1.2199707-2.7433472-2.7275391-2.7675171v-1.2407837h-1.5996094v1.2407837c-1.5085449.0241089-2.7285156,1.2537231-2.7285156,2.7675171v1.5117188c0,1.5142212,1.2199707,2.7438965,2.7285156,2.7680054v3.8519897c-.625-.0245361-1.1289062-.53302-1.1289062-1.1639404h-1.5996094c0,1.5142212,1.2199707,2.7438965,2.7285156,2.7680054v1.2407837h1.5996094v-1.2407837c1.5075684-.0241699,2.7275391-1.2537842,2.7275391-2.7680054v-1.5117188c0-1.5132446-1.2199707-2.7428589-2.7275391-2.7670288v-3.8519897c.625.0244751,1.1279297.5320435,1.1279297,1.1629639ZM28.2484516,33.7304688v-1.5117188c0-.6309204.5039062-1.1384888,1.1289062-1.1629639v3.838623c-.625-.0245361-1.1289062-.53302-1.1289062-1.1639404ZM32.1048969,37.6748047v1.5117188c0,.6309204-.5029297,1.1394043-1.1279297,1.1639404v-3.838623c.625.0244751,1.1279297.5320435,1.1279297,1.1629639Z"/>
  </g>
  <rect class="st0" width="60" height="60"/>
</svg>