<?xml version="1.0" encoding="UTF-8"?>
<svg id="Capa_1" xmlns="http://www.w3.org/2000/svg" width="80" height="80" version="1.1" viewBox="0 0 80 80">
  <!-- Generator: Adobe Illustrator 29.0.1, SVG Export Plug-In . SVG Version: 2.1.0 Build 192)  -->
  <defs>
    <style>
      .st0 {
        fill: #dc2527;
      }
    </style>
  </defs>
  <path class="st0" d="M72.4438477,32.3817967h-.9296265c-.4501953-12.9259033-9.5354614-24.1920776-22.5176392-27.8753662v-.7613525c0-1.7890625-1.4555664-3.2451172-3.2451172-3.2451172h-11.5029297c-1.7895508,0-3.2451172,1.4560547-3.2451172,3.2451172v.7613525c-12.9821777,3.6832886-22.0674438,14.9494629-22.5176392,27.8753662h-.9296265c-2.3979492,0-4.3486328,1.9511719-4.3486328,4.3486328v6.6630859c0,2.2896118,1.7849121,4.1520386,4.0336914,4.3167725v3.3756104c0,.3769531.2119141.7216797.5483398.8925781l4.5249023,2.2910156c.6479492,2.3955078,1.6064453,4.6962891,2.8540039,6.8515625l-1.5634766,4.7753906c-.1171875.3583984-.0234375.7519531.2431641,1.0185547l6.0620117,6.0625c.2661133.265625.6601562.3583984,1.0170898.2431641l4.8232422-1.5732422c2.1455078,1.2392578,4.4501953,2.1865234,6.862793,2.8212891l2.2714844,4.4833984c.1704102.3359375.5151367.5478516.8920898.5478516h8.5673828c.3764648,0,.7211914-.2119141.8916016-.546875l2.2924805-4.515625c2.4155273-.6542969,4.7143555-1.6152344,6.8452148-2.8632812l4.7827148,1.5625c.3574219.1162109.7514648.0234375,1.0175781-.2431641l6.0620117-6.0615234c.2666016-.2666016.3608398-.6601562.2431641-1.0185547l-1.5820312-4.8222656c1.237793-2.1435547,2.1845703-4.4443359,2.8198242-6.8525391l4.4931641-2.2724609c.3369141-.1708984.5488281-.515625.5488281-.8925781v-3.2633057c2.2487793-.1647339,4.0336914-2.0271606,4.0336914-4.3167725v-6.6630859c0-2.3974609-1.9506836-4.3486328-4.3486328-4.3486328ZM22.9472656,10.4134739v13.4282837h2v-14.664856c1.8842773-1.0648804,3.9118652-1.9310303,6.0561523-2.5827637v6.5698853h2V3.7450779c0-.6865234.5585938-1.2451172,1.2451172-1.2451172h11.5029297c.6865234,0,1.2451172.5585938,1.2451172,1.2451172v9.4189453h2v-6.5698853c2.1442871.6517334,4.171875,1.5178833,6.0561523,2.5827637v14.664856h2v-13.4282837c7.3800049,4.9822998,12.1273804,13.0501099,12.4613037,21.9683228H10.4859619c.3339233-8.9182129,5.0812988-16.9860229,12.4613037-21.9683228ZM66.4091797,52.5585545c-.2602539.1318359-.4501953.3701172-.5195312.6533203-.6230469,2.5273438-1.612793,4.9316406-2.940918,7.1464844-.1494141.2490234-.1831055.5507812-.0927734.8261719l1.53125,4.6679688-5.1933594,5.1923828-4.6313477-1.5126953c-.277832-.0917969-.5810547-.0566406-.8300781.0957031-2.2001953,1.3378906-4.6015625,2.3427734-7.1386719,2.9863281-.2792969.0712891-.5151367.2597656-.6455078.5166016l-2.2177734,4.3691406h-7.3393555l-2.1992188-4.3408203c-.1318359-.2597656-.3706055-.4492188-.6538086-.5185547-2.5307617-.6220703-4.9379883-1.6113281-7.1542969-2.9414062-.2485352-.1494141-.5498047-.1816406-.824707-.0927734l-4.668457,1.5234375-5.1938477-5.1943359,1.5126953-4.6210938c.090332-.2763672.0566406-.5771484-.0927734-.8261719-1.340332-2.2324219-2.3427734-4.6396484-2.9799805-7.1533203-.0708008-.2792969-.2597656-.515625-.5175781-.6464844l-4.3779297-2.2167969v-2.7294922h13.7228394c.5202637,8.9603271,7.9526978,16.0957031,17.0408325,16.0957031,9.0829468,0,16.5111084-7.135376,17.0310669-16.0957031h13.7228394v2.6162109l-4.3496094,2.2001953ZM24.9640503,47.7421483h30.0719604c-.5164795,7.8566284-7.0512085,14.0957031-15.0311279,14.0957031-7.9850464,0-14.5240479-6.2390747-15.0408325-14.0957031ZM74.7924805,43.3935154c0,1.2949219-1.0537109,2.3486328-2.3486328,2.3486328H7.5561523c-1.2949219,0-2.3486328-1.0537109-2.3486328-2.3486328v-6.6630859c0-1.2949219,1.0537109-2.3486328,2.3486328-2.3486328h64.8876953c1.2949219,0,2.3486328,1.0537109,2.3486328,2.3486328v6.6630859Z"/>
</svg>