<svg width="62" height="62" viewBox="0 0 62 62" fill="none" xmlns="http://www.w3.org/2000/svg">
<path d="M60.9667 53.6093H17.8767C17.422 53.6093 17.05 53.9813 17.05 54.436V56.3993C17.05 58.2696 15.531 59.7783 13.671 59.7783C11.811 59.7783 10.2817 58.2593 10.2817 56.3993V5.61096C10.2817 4.30896 9.76504 3.12062 8.9487 2.23195H48.4014C50.2717 2.23195 51.7804 3.75096 51.7804 5.61096V50.158H53.4337V5.61096C53.4337 2.83129 51.1707 0.578613 48.4014 0.578613H5.23904C2.45937 0.578613 0.206703 2.84162 0.206703 5.61096V9.40329C0.206703 9.85795 0.578703 10.23 1.03337 10.23H4.44337V8.57662H1.86004V5.61096C1.86004 3.74062 3.37904 2.23195 5.23904 2.23195C7.09904 2.23195 8.61804 3.75096 8.61804 5.61096V56.3993C8.61804 59.1789 10.881 61.4316 13.6607 61.4316H56.7507C59.5304 61.4316 61.7934 59.1686 61.7934 56.3993V54.436C61.7934 53.9813 61.4214 53.6093 60.9667 53.6093ZM60.14 56.3993C60.14 58.2696 58.621 59.7783 56.7507 59.7783H17.391C18.2074 58.8793 18.7034 57.6909 18.7034 56.3993V55.2626H60.14V56.3993Z" fill="#DA2320"/>
<path d="M44.4644 15.1904H17.5461V16.8438H44.4644V15.1904Z" fill="#DA2320"/>
<path d="M44.4644 22.1338H17.5461V23.7871H44.4644V22.1338Z" fill="#DA2320"/>
<path d="M44.4644 29.0884H17.5461V30.7417H44.4644V29.0884Z" fill="#DA2320"/>
<path d="M44.4644 36.0322H17.5461V37.6856H44.4644V36.0322Z" fill="#DA2320"/>
<path d="M33.1081 42.9761H17.5461V44.6294H33.1081V42.9761Z" fill="#DA2320"/>
</svg>
