<svg width="61" height="61" viewBox="0 0 61 61" fill="none" xmlns="http://www.w3.org/2000/svg">
<path d="M30.3574 7.19813L31.6079 8.23513C31.6079 8.23513 32.8584 6.77113 34.6071 6.77113C37.4131 6.77113 41.9271 9.11963 43.6758 10.1058L42.1914 12.4035L37.3419 10.9598C37.1284 10.8988 36.8946 10.9191 36.7014 11.0411C36.5083 11.153 36.3659 11.3461 36.3253 11.5698L35.7559 14.1521L37.3419 14.4978L37.7181 12.7695L42.3134 14.1318C42.6591 14.2335 43.0353 14.1013 43.2284 13.7963L45.5057 10.2685C45.6277 10.0855 45.6684 9.86179 45.6176 9.64829C45.5667 9.43479 45.4346 9.25179 45.2414 9.13996C44.9669 8.97729 38.5721 5.16479 34.6071 5.16479C32.0756 5.16479 30.4184 7.12696 30.3574 7.21846V7.19813Z" fill="#DA2320"/>
<path d="M51.9819 28.8226C51.8396 28.5684 51.5651 28.4057 51.2703 28.4057H47.3662L50.8026 21.0552L52.9478 20.5774C53.2629 20.5062 53.5069 20.2521 53.5679 19.9369L54.6557 14.2639C54.7066 14.0097 54.6354 13.7556 54.4626 13.5624C54.2898 13.3692 54.0356 13.2777 53.7814 13.2981L48.1084 13.8267C47.8746 13.8471 47.6509 13.9792 47.5188 14.1724L41.8864 22.2142L43.2182 23.1496L48.6371 15.4127L52.8563 15.0162L52.0734 19.0931L50.0604 19.5404C49.8164 19.5912 49.6029 19.7641 49.5013 19.9877L45.5668 28.3854H40.1479C40.5444 27.0942 40.8596 25.0202 39.5176 23.5766C38.3382 22.3057 37.0471 20.7096 35.8678 19.1541L39.3041 20.5367C39.4058 20.5774 39.5074 20.5977 39.6091 20.5977C39.9141 20.5977 40.1988 20.4249 40.3411 20.1402L41.6424 17.4359L40.1784 16.7344L39.2126 18.7474L34.0377 16.6632C32.6652 14.7519 31.6994 13.3082 31.6791 13.2676L30.3269 14.1622C30.5099 14.4367 34.7901 20.8722 38.3383 24.6847C39.5786 26.0166 38.2569 28.8022 38.2467 28.8327C38.1247 29.0869 38.1349 29.3817 38.2874 29.6257C38.4399 29.8596 38.6941 30.0121 38.9787 30.0121H50.8026L52.4293 32.9401L47.3561 34.1601L46.6749 33.0214C46.5428 32.8079 46.3191 32.6554 46.0751 32.6351C45.8209 32.6046 40.7376 32.0861 35.2069 34.6176C34.6579 33.1434 33.4684 31.6692 33.3057 31.4659L32.0553 32.5029C32.6144 33.1739 33.4582 34.4244 33.7531 35.3597C33.2142 35.6647 32.6653 35.9799 32.1264 36.3459C28.5681 38.7757 27.1041 41.8562 25.9349 44.3267C25.3961 45.4654 24.9284 46.4516 24.3388 47.2242C23.5763 48.2307 22.3969 48.7187 21.1464 49.2372C19.9874 49.7151 18.7776 50.2132 17.8728 51.1791C16.0834 53.0701 17.6084 56.0082 17.6796 56.1302C17.7813 56.3234 17.9642 56.4657 18.1777 56.5267C18.3912 56.5877 18.6149 56.5572 18.8081 56.4454L21.2379 55.0221L22.6816 58.6312H14.3043L12.8402 47.9359C14.0297 47.3259 16.6629 45.6586 17.8524 42.2121C18.8691 39.2536 17.9236 36.4984 17.1103 34.9022C19.3774 34.9022 23.4746 34.2617 26.0163 30.2662C29.5136 24.7559 26.6974 18.1882 26.5754 17.9036L25.0809 18.5542C25.0809 18.5542 26.2704 21.3602 26.0874 24.6136C25.4673 23.2614 24.6031 21.8686 23.7084 20.4351C22.1021 17.8731 20.4449 15.2196 20.4449 12.9626C20.4449 5.42907 27.8157 2.30791 31.7502 2.30791C34.3936 2.30791 37.8096 3.47708 37.8502 3.49741L38.3789 1.96224C38.2264 1.91141 34.6681 0.691406 31.7502 0.691406C27.2362 0.691406 18.8183 4.29041 18.8183 12.9727C18.8183 15.6974 20.6076 18.5542 22.3258 21.3094C23.7898 23.6477 25.2843 26.0471 25.3554 27.9787C25.1623 28.4667 24.9284 28.9446 24.6336 29.4122C22.0309 33.5196 17.3848 33.3772 16.0834 33.2451C14.6906 30.9881 15.9207 28.9852 17.2322 26.8706C18.2184 25.2642 19.2453 23.6071 18.8183 21.9296C18.5336 20.8417 17.6999 19.9064 16.2562 19.0829C15.3209 18.5542 14.3653 18.4322 13.3994 18.7372C11.1119 19.4591 9.43442 22.4074 8.09242 25.2032C7.64508 26.1386 6.66908 26.0369 6.55725 26.0369L6.34375 27.6432C7.11642 27.7551 8.78376 27.5314 9.56659 25.9047C10.2884 24.4001 11.9659 20.8926 13.8874 20.2826C14.4059 20.1199 14.9142 20.1911 15.4531 20.4961C16.5002 21.0857 17.0798 21.6856 17.2424 22.3261C17.5068 23.3427 16.7036 24.6339 15.8496 26.0064C14.4161 28.3244 12.6369 31.2117 14.9447 34.4752C14.9447 34.4752 14.9448 34.4854 14.9549 34.4956C14.9854 34.5261 17.5678 38.0132 16.3071 41.6936C15.0363 45.3739 11.6914 46.6854 11.6609 46.6956C11.3051 46.8277 11.0916 47.1937 11.1424 47.5699L12.7894 59.5666C12.8403 59.9732 13.1859 60.2681 13.5926 60.2681H23.8711C24.1456 60.2681 24.3896 60.1359 24.5421 59.9122C24.6946 59.6886 24.7251 59.4039 24.6234 59.1497L22.3868 53.5479C22.2953 53.3242 22.1224 53.1616 21.8988 53.0802C21.6751 52.9989 21.4311 53.0294 21.2277 53.1514L18.8081 54.5747C18.6048 53.8834 18.4726 52.9176 19.0521 52.3076C19.7231 51.5959 20.7194 51.1892 21.7666 50.7521C23.0984 50.2031 24.6031 49.5829 25.6299 48.2206C26.0468 47.6716 26.3924 47.0514 26.7381 46.3906C28.0394 47.4276 29.5034 48.8509 29.8084 49.7557C29.4018 49.8676 28.6088 49.9591 27.8971 49.9591C27.6124 49.9591 27.3481 50.1116 27.2057 50.3556C27.0634 50.5996 27.0533 50.9046 27.1956 51.1587L31.9028 59.8411C32.0451 60.1054 32.3196 60.2681 32.6144 60.2681H42.8929C43.1674 60.2681 43.4318 60.1257 43.5741 59.8919C43.7266 59.6581 43.7469 59.3632 43.6249 59.1091L41.2866 54.1172C41.1544 53.8326 40.8596 53.6496 40.5546 53.6496H40.5342L36.6303 53.7716V52.3381C37.5046 51.4129 40.3614 48.1291 40.3614 44.5097C40.3614 40.8904 36.3761 38.1454 34.2309 36.9457C39.1007 34.1296 44.0926 34.1499 45.4956 34.2312L46.2682 35.5122C46.4512 35.8172 46.8173 35.9697 47.1528 35.8884L53.8424 34.2719C54.0864 34.2109 54.2898 34.0381 54.3914 33.8042C54.4931 33.5704 54.4829 33.3061 54.3609 33.0824L51.9921 28.8022L51.9819 28.8226ZM38.7144 44.5301C38.7144 48.0172 35.2577 51.4027 35.2272 51.4332C35.0646 51.5857 34.9833 51.7992 34.9833 52.0229V54.6256C34.9833 54.8492 35.0747 55.0526 35.2272 55.2051C35.3899 55.3576 35.5831 55.4389 35.8169 55.4389L40.0259 55.3169L41.5916 58.6617H33.0719L29.2086 51.5349C31.4656 51.2807 31.4656 50.3962 31.4656 50.0811C31.4656 48.2104 28.7511 45.9026 27.4498 44.9062C28.5274 42.6187 29.7982 40.0771 32.6551 37.9827C34.0784 38.6944 38.7144 41.2666 38.7144 44.5301Z" fill="#DA2320"/>
</svg>
