<svg width="61" height="61" viewBox="0 0 61 61" fill="none" xmlns="http://www.w3.org/2000/svg">
<path d="M56.7501 8.03155L30.7336 0.243879C30.5811 0.203212 30.4184 0.203212 30.2659 0.243879L4.24942 8.03155C3.90376 8.13322 3.66992 8.44838 3.66992 8.81438V21.4007H5.29659V9.41421L30.4998 1.87054L55.7029 9.41421V34.78C55.7029 51.9719 32.8483 58.5192 30.4998 59.1394C28.1513 58.509 5.29659 51.9617 5.29659 34.78V32.7162H9.50559V33.8244C9.50559 48.9422 29.4526 53.9544 30.3066 54.1577C30.3676 54.178 30.4286 54.178 30.4998 54.178C30.5709 54.178 30.6319 54.178 30.6929 54.1577C31.5469 53.9544 51.4939 48.9422 51.4939 33.8244V13.6842C51.4939 13.3284 51.2601 13.003 50.9144 12.9014L30.7336 6.86238C30.5811 6.82171 30.4184 6.82171 30.2659 6.86238L10.0851 12.9014C9.73942 13.003 9.50559 13.3182 9.50559 13.6842V21.4007H11.1323V14.284L30.4998 8.47888L49.8673 14.284V33.8244C49.8673 46.919 32.5331 51.982 30.4998 52.531C28.4664 51.982 11.1323 46.919 11.1323 33.8244V32.7162H23.0069V36.4169H22.5088C21.5734 36.4169 20.8211 37.1794 20.8211 38.1045V42.4457C20.8211 43.381 21.5836 44.1334 22.5088 44.1334H39.6803C40.6156 44.1334 41.3679 43.3709 41.3679 42.4457V38.1045C41.3679 37.1692 40.6054 36.4169 39.6803 36.4169H39.1821V22.4987H39.6803C40.6156 22.4987 41.3679 21.7362 41.3679 20.8009V16.4597C41.3679 15.5244 40.6054 14.7619 39.6803 14.7619H22.5088C21.5734 14.7619 20.8211 15.5244 20.8211 16.4597V20.8009C20.8211 21.7362 21.5836 22.4987 22.5088 22.4987H23.0069V26.1994H4.48326C4.03592 26.1994 3.66992 26.5654 3.66992 27.0127V34.78C3.66992 54.0865 30.0423 60.705 30.3066 60.7762C30.3676 60.7965 30.4286 60.7965 30.4998 60.7965C30.5709 60.7965 30.6319 60.7965 30.6929 60.7762C30.9573 60.7152 57.3296 54.0865 57.3296 34.78V8.80421C57.3296 8.44838 57.0958 8.12305 56.7501 8.02138V8.03155ZM5.29659 31.0895V27.826H9.50559V31.0895H5.29659ZM39.7514 38.1045V42.4457C39.7514 42.4457 39.7209 42.5067 39.6904 42.5067L22.4478 42.4457L22.5088 38.0435L39.7514 38.1045ZM22.4478 20.811L22.5088 16.4089L39.7514 16.48V20.8212C39.7514 20.8212 39.7209 20.8924 39.6904 20.8924L22.4478 20.8212V20.811ZM37.5554 22.4987V36.4169H24.6234V22.4987H37.5554ZM23.0069 31.0895H11.1323V27.826H23.0069V31.0895Z" fill="#DA2320"/>
<path d="M31.9128 26.8398H30.2861V33.1533H31.9128V26.8398Z" fill="#DA2320"/>
</svg>
