<svg width="61" height="61" viewBox="0 0 61 61" fill="none" xmlns="http://www.w3.org/2000/svg">
<path d="M54.5745 29.7884H52.3887L51.921 26.9824C53.385 25.8234 54.7575 23.5969 54.7575 19.4794C54.7575 19.3472 54.8084 19.0931 54.8592 18.8389C55.0524 17.9137 55.337 16.5107 54.4525 15.2399C53.629 14.0606 52.0227 13.2981 49.5217 12.9117C47.163 12.5457 45.7092 13.2981 44.906 13.9792C43.6555 15.0569 43.2082 16.5819 43.2082 17.6596C43.2082 18.4119 43.442 19.0219 43.9199 19.4794C43.9605 19.5201 43.991 19.5506 44.0317 19.5811C44.1029 23.6884 45.2009 25.8132 46.37 26.9112L45.8922 29.7884H43.7064C41.6324 29.7884 39.7109 30.8356 38.562 32.5334H34.8207L34.0785 28.0804C36.1322 26.5351 38.1249 23.4444 38.1249 17.5884C38.1249 17.3647 38.2062 16.9987 38.2774 16.6124C38.5417 15.3619 38.928 13.4607 37.7589 11.773C36.6507 10.1769 34.4445 9.15006 30.998 8.61123C27.7854 8.11306 25.8232 9.11955 24.7354 10.0549C23.0477 11.4985 22.4479 13.5624 22.4479 15.0061C22.4479 15.9719 22.7529 16.7649 23.3425 17.3444C23.4239 17.4257 23.5154 17.4969 23.5967 17.5681C23.6679 23.5359 25.2742 26.5147 26.9415 27.9991L26.1892 32.5334H22.4479C21.299 30.8356 19.3775 29.7884 17.3035 29.7884H15.1177L14.6399 26.9112C15.809 25.8132 16.907 23.6884 16.9782 19.5811C17.0189 19.5506 17.0494 19.5099 17.09 19.4794C17.5577 19.0219 17.8017 18.4017 17.8017 17.6596C17.8017 16.5819 17.3544 15.0569 16.1039 13.9792C15.3007 13.2879 13.8469 12.5457 11.4882 12.9117C8.98721 13.2981 7.37071 14.0606 6.55738 15.2399C5.67288 16.5209 5.95755 17.9137 6.15071 18.8389C6.20155 19.0931 6.25238 19.3472 6.25238 19.4794C6.25238 23.5969 7.63505 25.8336 9.08888 26.9824L8.62121 29.7884H6.43538C2.99905 29.7884 0.213379 32.5842 0.213379 36.0104V43.5642C0.213379 44.0116 0.579379 44.3776 1.02671 44.3776H14.3247V51.7077C14.3247 52.155 14.6907 52.5211 15.138 52.5211H45.8719C46.3192 52.5211 46.6852 52.155 46.6852 51.7077V44.3776H59.9832C60.4305 44.3776 60.7965 44.0116 60.7965 43.5642V36.0104C60.7965 32.5741 58.0007 29.7884 54.5745 29.7884ZM45.6787 20.2724C46.248 20.3639 46.8072 20.3537 47.2342 20.3436H47.4985C49.2879 20.3436 51.982 18.9609 52.2769 18.7982L51.5245 17.3546C50.8027 17.7307 48.6779 18.7067 47.4985 18.7067H47.2037C46.614 18.7169 45.4855 18.7372 45.0484 18.3102C44.9569 18.2187 44.8247 18.0459 44.8247 17.6494C44.8247 16.9682 45.1195 15.9211 45.9532 15.2094C46.7462 14.5282 47.8544 14.2944 49.2574 14.5079C51.2602 14.8129 52.5615 15.372 53.1004 16.1549C53.5884 16.8665 53.4054 17.7307 53.2529 18.5034C53.1817 18.8491 53.1105 19.1744 53.1105 19.4794C53.1105 25.2134 50.2232 26.4639 49.115 26.4639C47.6205 26.4639 45.9024 24.8169 45.6584 20.2724H45.6787ZM47.8544 27.8465C48.4237 28.0499 48.9015 28.0906 49.1252 28.0906C49.4607 28.0906 49.908 28.0092 50.4062 27.8364L50.7315 29.7884H47.529L47.8544 27.8465ZM32.3095 44.3674L30.4999 46.2889L28.6902 44.3674L29.7882 37.9624L29.8797 38.0641C30.0322 38.2471 30.266 38.3589 30.51 38.3589C30.754 38.3589 30.9777 38.2471 31.1404 38.0641L31.2319 37.9522L32.3299 44.3572L32.3095 44.3674ZM30.4999 36.2747L28.7614 34.1601H32.2485L30.51 36.2747H30.4999ZM25.2437 18.3001C26.1587 18.5034 27.1144 18.4831 27.7955 18.4729H28.1717C30.6625 18.4729 34.6174 16.4091 34.78 16.3277L34.0277 14.884C32.9907 15.433 29.9102 16.8361 28.1717 16.8361H27.765C26.8094 16.8564 25.1929 16.8869 24.471 16.1752C24.1965 15.9007 24.0542 15.5144 24.0542 14.9959C24.0542 13.9589 24.5015 12.3627 25.7724 11.2749C26.972 10.2481 28.6394 9.88207 30.7337 10.2074C33.6719 10.6649 35.5832 11.4986 36.4067 12.6881C37.1794 13.8064 36.915 15.1179 36.671 16.2769C36.5694 16.7649 36.4779 17.1919 36.4779 17.5884C36.4779 25.9861 32.1469 27.8262 30.4795 27.8262C28.1717 27.8262 25.4979 25.3049 25.2335 18.3001H25.2437ZM28.4259 28.9751C29.351 29.3919 30.1339 29.4529 30.4897 29.4529C31.0184 29.4529 31.7605 29.3207 32.5739 28.9751L33.1635 32.5334H27.826L28.4157 28.9751H28.4259ZM7.86888 19.4794C7.86888 19.1744 7.79771 18.8491 7.72655 18.5034C7.56388 17.7409 7.39105 16.8665 7.87905 16.1549C8.41788 15.372 9.71921 14.8129 11.722 14.5079C12.0575 14.4571 12.3829 14.4266 12.6777 14.4266C13.6334 14.4266 14.4264 14.6909 15.0262 15.1992C15.8599 15.9109 16.1547 16.9581 16.1547 17.6392C16.1547 18.0357 16.0327 18.2086 15.931 18.3001C15.4939 18.7271 14.3755 18.7067 13.7757 18.6965H13.4809C12.3015 18.6965 10.1767 17.7206 9.45488 17.3444L8.70255 18.7881C9.00755 18.9406 11.6915 20.3232 13.4809 20.3232H13.7452C14.1722 20.3334 14.7314 20.3436 15.3007 20.2521C15.0567 24.7966 13.3385 26.4436 11.844 26.4436C10.7359 26.4436 7.84855 25.193 7.84855 19.459L7.86888 19.4794ZM10.5935 27.8364C11.0917 28.0194 11.539 28.0906 11.8745 28.0906C12.0982 28.0906 12.576 28.0499 13.1454 27.8465L13.4707 29.7884H10.2682L10.5935 27.8364ZM14.3145 36.7627V42.7509H1.82988V36.0104C1.82988 33.4687 3.89371 31.4151 6.42521 31.4151H17.2934C18.4015 31.4151 19.4589 31.8319 20.2824 32.5334H18.554C16.2157 32.5334 14.3145 34.4346 14.3145 36.7729V36.7627ZM45.0585 50.8944H15.9412V36.7627C15.9412 35.3191 17.1104 34.1499 18.554 34.1499H26.6467L28.4157 36.2951L27.0127 44.4894C26.972 44.7436 27.0432 44.9977 27.2262 45.1807L29.9102 48.0274C30.0627 48.1901 30.2762 48.2816 30.4999 48.2816C30.7235 48.2816 30.937 48.1901 31.0895 48.0274L33.7735 45.1807C33.9464 44.9977 34.0277 44.7334 33.987 44.4894L32.584 36.2951L34.353 34.1499H42.4457C43.8894 34.1499 45.0585 35.3191 45.0585 36.7627V50.8944ZM59.1699 42.7509H46.675V36.7627C46.675 34.4244 44.7739 32.5232 42.4355 32.5232H40.7072C41.5307 31.8217 42.5779 31.4049 43.6962 31.4049H54.5644C57.106 31.4049 59.1597 33.4687 59.1597 36.0002V42.7407L59.1699 42.7509Z" fill="#DA2320"/>
</svg>
