<svg width="61" height="61" viewBox="0 0 61 61" fill="none" xmlns="http://www.w3.org/2000/svg">
<path d="M34.7192 20.4655C34.526 20.2419 34.221 20.13 33.9262 20.2012L20.6688 23.0478L19.459 20.8417L34.038 12.5254L44.9163 18.1882C45.2213 18.3509 45.5975 18.3 45.8517 18.056L50.4877 13.664L49.3693 12.4847L45.1502 16.4802L34.3938 10.8784C34.1498 10.7564 33.855 10.7564 33.611 10.8885L18.971 19.2354L12.871 13.1455L11.7222 14.2944L17.6188 20.191C17.5172 20.4147 17.507 20.679 17.6392 20.9129L19.5302 24.3492C19.703 24.6644 20.0588 24.827 20.4147 24.7558L33.7838 21.8888L45.8415 35.99C46.2278 36.4374 46.1668 37.1185 45.7195 37.4947L43.5947 39.3044C43.1473 39.6907 42.4662 39.6399 42.09 39.1824L41.7647 38.796L34.2617 30.012L33.0213 31.0694L40.5243 39.8534C40.8395 40.2194 40.7988 40.7785 40.4227 41.0937L38.5113 42.7305C38.3385 42.883 38.1047 42.9643 37.8708 42.944C37.637 42.9237 37.4235 42.822 37.271 42.639L30.2153 34.3837L28.975 35.441L35.4715 43.0457C35.7867 43.4117 35.746 43.9709 35.3698 44.286L33.4585 45.9228C33.0925 46.238 32.5333 46.1974 32.2182 45.8212L26.5655 39.2027L25.3252 40.26L29.7985 45.4857C30.1137 45.8517 30.073 46.4109 29.6968 46.726L27.7855 48.3629C27.6127 48.5154 27.389 48.5967 27.145 48.5764C26.9112 48.556 26.6977 48.4544 26.5452 48.2714L25.4777 47.0209L24.2373 48.0782L25.3048 49.3287C25.742 49.837 26.352 50.142 27.0128 50.203C27.084 50.203 27.145 50.203 27.2162 50.203C27.816 50.203 28.3853 49.9895 28.8428 49.6032L30.7542 47.9664C31.0083 47.7529 31.2015 47.4987 31.3438 47.214C31.7912 47.5597 32.3402 47.7529 32.8892 47.7529C33.4382 47.7529 34.0482 47.5597 34.5158 47.153L36.4272 45.5162C36.7728 45.2214 37.0168 44.8452 37.1592 44.4385C37.4133 44.5199 37.6777 44.5808 37.942 44.5808C38.5215 44.5808 39.101 44.3877 39.5687 43.981L41.48 42.3442C41.8663 42.0189 42.1307 41.5919 42.2628 41.114C42.4763 41.1649 42.6797 41.1954 42.8932 41.1954C43.5133 41.1954 44.1335 40.9819 44.6418 40.5549L46.7667 38.7452C47.8952 37.7794 48.0273 36.0714 47.0615 34.9429L34.6887 20.4655H34.7192Z" fill="#DA2320"/>
<path d="M59.4241 23.2512L55.0727 27.4704C54.9406 27.5924 54.8593 27.7652 54.8288 27.9381C54.8288 27.9889 54.0256 33.1841 50.4062 35.0852L51.1687 36.5289C55.0422 34.4956 56.1707 29.6867 56.3944 28.4565L60.5526 24.4204L59.4241 23.2512Z" fill="#DA2320"/>
<path d="M24.1152 43.3304L21.7057 40.8497C21.7463 40.5244 21.665 40.199 21.421 39.9449L18.127 36.5492C17.883 36.295 17.5577 36.2035 17.2323 36.234L14.0502 32.9502C13.918 32.8079 13.7452 32.7265 13.5622 32.6757C13.5622 32.6757 13.5622 32.6554 13.5418 32.6452L10.319 29.3207C9.892 28.8835 9.20067 28.8734 8.7635 29.3004L8.428 29.6257L1.58583 22.7937L0.437012 23.9425L7.25884 30.7542L5.90667 32.0657C5.4695 32.4927 5.45933 33.184 5.88633 33.6212L8.95667 36.7932C8.95667 37.0779 9.04817 37.3625 9.26167 37.576L12.4438 40.8599C12.4438 40.8599 12.4133 40.9412 12.4133 40.9819C12.4133 41.2767 12.515 41.5512 12.7183 41.7647L16.0022 45.1604C16.2055 45.3739 16.48 45.4959 16.7748 45.4959H16.7952C17.0798 45.4959 17.3543 45.384 17.5577 45.1909L17.5983 45.1502L19.835 47.458C20.0485 47.6715 20.3332 47.7834 20.6178 47.7834C20.9025 47.7834 21.1668 47.6817 21.3803 47.4784L24.0643 44.8757C24.5015 44.4589 24.5117 43.7574 24.0847 43.3202L24.1152 43.3304ZM15.8903 37.1897L14.6907 38.3589L13.4402 39.5687L10.7968 36.844L12.2913 35.3902L13.247 34.465L15.8903 37.1897ZM9.51584 30.8457L11.9965 33.4077L11.0103 34.3634L9.892 35.4512L7.41133 32.8892L9.51584 30.8559V30.8457ZM14.2738 41.0327L17.334 38.064L19.8858 40.6972L17.273 43.2287L16.8257 43.6659L14.2738 41.0327ZM20.6483 45.9534L18.7878 44.0319L20.3738 42.4967L20.7093 42.1714L22.5698 44.0929L20.6483 45.9534Z" fill="#DA2320"/>
</svg>
