<svg width="90" height="80" viewBox="0 0 90 80" fill="none" xmlns="http://www.w3.org/2000/svg">
<path d="M79.5502 32.8002H78.4502L75.8602 8.67023C75.6202 6.43023 73.7402 4.74023 71.4802 4.74023H18.5002C16.2402 4.74023 14.3602 6.43023 14.1202 8.67023L11.5302 32.8002H10.4302C7.43024 32.8002 4.99023 35.2402 4.99023 38.2402V71.6902C4.99023 73.6502 6.59023 75.2502 8.55023 75.2502H18.0002C19.9602 75.2502 21.5602 73.6502 21.5602 71.6902V63.2002H68.4102V71.6902C68.4102 73.6502 70.0102 75.2502 71.9702 75.2502H81.4202C83.3802 75.2502 84.9802 73.6502 84.9802 71.6902V38.2402C84.9802 35.2402 82.5402 32.8002 79.5402 32.8002H79.5502ZM16.1202 8.88023C16.2502 7.66023 17.2802 6.73023 18.5102 6.73023H71.4902C72.7202 6.73023 73.7502 7.65023 73.8802 8.88023L76.4402 32.8002H54.6202L63.4502 24.5602L62.0802 23.1002L51.6902 32.8102H42.9002C42.4002 27.6902 38.0702 23.6802 32.8202 23.6802C27.5702 23.6802 23.2402 27.6902 22.7402 32.8102H13.5702L16.1302 8.89023L16.1202 8.88023ZM40.8702 32.8002H24.7402C25.2402 28.7902 28.6602 25.6702 32.8102 25.6702C36.9602 25.6702 40.3802 28.7902 40.8802 32.8002H40.8702ZM7.00021 38.2502C7.00021 36.3502 8.54022 34.8102 10.4402 34.8102H79.5502C81.4502 34.8102 82.9902 36.3502 82.9902 38.2502V61.2102H61.6302L58.0402 53.7402C57.8702 53.3902 57.5202 53.1702 57.1402 53.1702H32.8402C32.4602 53.1702 32.1102 53.3902 31.9402 53.7402L28.3502 61.2102H6.99023V38.2502H7.00021ZM59.4202 61.2102H30.5702L33.4702 55.1702H56.5102L59.4102 61.2102H59.4202ZM19.5702 71.7002C19.5702 72.5602 18.8702 73.2602 18.0102 73.2602H8.56024C7.70024 73.2602 7.00021 72.5602 7.00021 71.7002V63.2102H19.5802V71.7002H19.5702ZM83.0002 71.7002C83.0002 72.5602 82.3002 73.2602 81.4402 73.2602H71.9902C71.1302 73.2602 70.4302 72.5602 70.4302 71.7002V63.2102H83.0102V71.7002H83.0002Z" fill="#DC2527"/>
<path d="M24.11 45.1104H16.75V47.1104H24.11V45.1104Z" fill="#DC2527"/>
<path d="M73.2404 45.1104H65.8804V47.1104H73.2404V45.1104Z" fill="#DC2527"/>
<path d="M57.1602 45.1104H33.2202V47.1104H57.1602V45.1104Z" fill="#DC2527"/>
</svg>
