<svg width="90" height="80" viewBox="0 0 90 80" fill="none" xmlns="http://www.w3.org/2000/svg">
<path d="M83.02 24.7099H74.76V2.91992C74.76 2.36992 74.31 1.91992 73.76 1.91992H16.26C15.71 1.91992 15.26 2.36992 15.26 2.91992V24.6999H7C6.45 24.6999 6 25.1499 6 25.6999V40.5499C6 41.0999 6.45 41.5499 7 41.5499H15.26V57.0499H11.15C10.6 57.0499 10.15 57.4999 10.15 58.0499V67.6799C10.15 68.2299 10.6 68.6799 11.15 68.6799H15.26V75.4999C15.26 76.9199 16.41 78.0699 17.83 78.0699H26.27C27.69 78.0699 28.84 76.9199 28.84 75.4999V68.6799H61.2V75.4999C61.2 76.9199 62.35 78.0699 63.77 78.0699H72.21C73.63 78.0699 74.78 76.9199 74.78 75.4999V68.6799H78.89C79.44 68.6799 79.89 68.2299 79.89 67.6799V58.0499C79.89 57.4999 79.44 57.0499 78.89 57.0499H74.78V41.5499H83.04C83.59 41.5499 84.04 41.0999 84.04 40.5499V25.6999C84.04 25.1499 83.59 24.6999 83.04 24.6999L83.02 24.7099ZM63.55 32.4199H46V14.7799H63.55C68.63 14.7799 72.76 18.9099 72.76 23.9899V37.2499C70.73 34.3299 67.37 32.4199 63.55 32.4199ZM26.45 32.4199C22.64 32.4199 19.27 34.3399 17.24 37.2499V23.9899C17.24 18.9099 21.37 14.7799 26.45 14.7799H44V32.4099H26.45V32.4199ZM17.25 3.91992H72.75V17.6099C70.72 14.6899 67.36 12.7799 63.54 12.7799H26.45C22.64 12.7799 19.27 14.6999 17.24 17.6099V3.91992H17.25ZM7.99001 39.5599V26.7099H15.25V39.5599H7.99001ZM26.82 75.5099C26.82 75.8199 26.57 76.0799 26.25 76.0799H17.81C17.5 76.0799 17.24 75.8299 17.24 75.5099V68.6899H26.81V75.5099H26.82ZM72.75 75.5099C72.75 75.8199 72.5 76.0799 72.18 76.0799H63.74C63.43 76.0799 63.17 75.8299 63.17 75.5099V68.6899H72.74V75.5099H72.75ZM77.86 66.6899H12.14V59.0599H77.86V66.6899ZM50.82 57.0599H39.19V47.5199H50.82V57.0599ZM52.82 57.0599V46.5199C52.82 45.9699 52.37 45.5199 51.82 45.5199H38.19C37.64 45.5199 37.19 45.9699 37.19 46.5199V57.0599H17.25V43.6199C17.25 38.5399 21.38 34.4099 26.46 34.4099H63.55C68.63 34.4099 72.76 38.5399 72.76 43.6199V57.0599H52.82ZM82.02 39.5599H74.76V26.7099H82.02V39.5599Z" fill="#DC2527"/>
<path d="M31.0403 44.5098H24.0703V46.5098H31.0403V44.5098Z" fill="#DC2527"/>
<path d="M65.9397 44.5098H58.9697V46.5098H65.9397V44.5098Z" fill="#DC2527"/>
</svg>
